<svg width="107" height="132" viewBox="0 0 107 132" fill="none" xmlns="http://www.w3.org/2000/svg">
<g opacity="0.7" filter="url(#filter0_d_1923_35383)">
<rect x="40.5" y="40" width="66.538" height="51.8673" rx="18" fill="#2D3154" fill-opacity="0.34" shape-rendering="crispEdges"/>
<rect x="41" y="40.5" width="65.538" height="50.8673" rx="17.5" stroke="#4B528E" shape-rendering="crispEdges"/>
<path d="M52.5 77.3672L55 79.8672M58.5 75.8672L61 73.3672M56.5 77.3672L59 79.8672L65 73.3672" stroke="#06BBFE" stroke-width="1.5" stroke-linecap="round" stroke-linejoin="round"/>
<g filter="url(#filter1_i_1923_35383)">
<path d="M87.6881 55.3463C87.6957 54.9097 87.6162 54.4758 87.4544 54.0702C87.2926 53.6645 87.0515 53.2952 86.7454 52.9837C86.4393 52.6722 86.0742 52.4248 85.6714 52.2559C85.2687 52.087 84.8363 52 84.3996 52C83.9628 52 83.5304 52.087 83.1277 52.2559C82.7249 52.4248 82.3598 52.6722 82.0537 52.9837C81.7476 53.2952 81.5066 53.6645 81.3447 54.0702C81.1829 54.4758 81.1034 54.9097 81.1111 55.3463V59.1313C81.1104 59.4533 81.1347 59.7753 81.1841 60.0973C81.2034 60.2147 81.2191 60.332 81.2311 60.4493C81.2671 60.8193 81.2231 61.3033 80.9711 61.6293L81.5731 62.2093C80.0412 62.9942 78.756 64.1871 77.8594 65.6564C76.9627 67.1257 76.4896 68.8141 76.4921 70.5353C76.4912 71.4935 76.6369 72.4462 76.9241 73.3603L77.9211 79.8673H86.0221V79.8643C91.0251 79.7563 95.0391 76.4943 95.0391 70.5343C95.0391 67.0323 93.3621 64.2123 90.8251 62.6223L90.8311 62.6173C90.6581 62.4973 90.4541 62.3743 90.2361 62.2433H90.2341C89.5141 61.8113 88.6341 61.2833 88.1711 60.4213C87.7681 59.6743 87.6911 58.4613 87.6911 57.8983H87.6881V55.3463Z" fill="url(#paint0_linear_1923_35383)"/>
</g>
<path d="M87.6881 55.3463C87.6957 54.9097 87.6162 54.4758 87.4544 54.0702C87.2926 53.6645 87.0515 53.2952 86.7454 52.9837C86.4393 52.6722 86.0742 52.4248 85.6714 52.2559C85.2687 52.087 84.8363 52 84.3996 52C83.9628 52 83.5304 52.087 83.1277 52.2559C82.7249 52.4248 82.3598 52.6722 82.0537 52.9837C81.7476 53.2952 81.5066 53.6645 81.3447 54.0702C81.1829 54.4758 81.1034 54.9097 81.1111 55.3463V59.1313C81.1104 59.4533 81.1347 59.7753 81.1841 60.0973C81.2034 60.2147 81.2191 60.332 81.2311 60.4493C81.2671 60.8193 81.2231 61.3033 80.9711 61.6293L81.5731 62.2093C80.0412 62.9942 78.756 64.1871 77.8594 65.6564C76.9627 67.1257 76.4896 68.8141 76.4921 70.5353C76.4912 71.4935 76.6369 72.4462 76.9241 73.3603L77.9211 79.8673H86.0221V79.8643C91.0251 79.7563 95.0391 76.4943 95.0391 70.5343C95.0391 67.0323 93.3621 64.2123 90.8251 62.6223L90.8311 62.6173C90.6581 62.4973 90.4541 62.3743 90.2361 62.2433H90.2341C89.5141 61.8113 88.6341 61.2833 88.1711 60.4213C87.7681 59.6743 87.6911 58.4613 87.6911 57.8983H87.6881V55.3463Z" fill="url(#paint1_radial_1923_35383)"/>
<path d="M87.6881 55.3463C87.6957 54.9097 87.6162 54.4758 87.4544 54.0702C87.2926 53.6645 87.0515 53.2952 86.7454 52.9837C86.4393 52.6722 86.0742 52.4248 85.6714 52.2559C85.2687 52.087 84.8363 52 84.3996 52C83.9628 52 83.5304 52.087 83.1277 52.2559C82.7249 52.4248 82.3598 52.6722 82.0537 52.9837C81.7476 53.2952 81.5066 53.6645 81.3447 54.0702C81.1829 54.4758 81.1034 54.9097 81.1111 55.3463V59.1313C81.1104 59.4533 81.1347 59.7753 81.1841 60.0973C81.2034 60.2147 81.2191 60.332 81.2311 60.4493C81.2671 60.8193 81.2231 61.3033 80.9711 61.6293L81.5731 62.2093C80.0412 62.9942 78.756 64.1871 77.8594 65.6564C76.9627 67.1257 76.4896 68.8141 76.4921 70.5353C76.4912 71.4935 76.6369 72.4462 76.9241 73.3603L77.9211 79.8673H86.0221V79.8643C91.0251 79.7563 95.0391 76.4943 95.0391 70.5343C95.0391 67.0323 93.3621 64.2123 90.8251 62.6223L90.8311 62.6173C90.6581 62.4973 90.4541 62.3743 90.2361 62.2433H90.2341C89.5141 61.8113 88.6341 61.2833 88.1711 60.4213C87.7681 59.6743 87.6911 58.4613 87.6911 57.8983H87.6881V55.3463Z" fill="url(#paint2_radial_1923_35383)"/>
<path d="M87.6881 55.3463C87.6957 54.9097 87.6162 54.4758 87.4544 54.0702C87.2926 53.6645 87.0515 53.2952 86.7454 52.9837C86.4393 52.6722 86.0742 52.4248 85.6714 52.2559C85.2687 52.087 84.8363 52 84.3996 52C83.9628 52 83.5304 52.087 83.1277 52.2559C82.7249 52.4248 82.3598 52.6722 82.0537 52.9837C81.7476 53.2952 81.5066 53.6645 81.3447 54.0702C81.1829 54.4758 81.1034 54.9097 81.1111 55.3463V59.1313C81.1104 59.4533 81.1347 59.7753 81.1841 60.0973C81.2034 60.2147 81.2191 60.332 81.2311 60.4493C81.2671 60.8193 81.2231 61.3033 80.9711 61.6293L81.5731 62.2093C80.0412 62.9942 78.756 64.1871 77.8594 65.6564C76.9627 67.1257 76.4896 68.8141 76.4921 70.5353C76.4912 71.4935 76.6369 72.4462 76.9241 73.3603L77.9211 79.8673H86.0221V79.8643C91.0251 79.7563 95.0391 76.4943 95.0391 70.5343C95.0391 67.0323 93.3621 64.2123 90.8251 62.6223L90.8311 62.6173C90.6581 62.4973 90.4541 62.3743 90.2361 62.2433H90.2341C89.5141 61.8113 88.6341 61.2833 88.1711 60.4213C87.7681 59.6743 87.6911 58.4613 87.6911 57.8983H87.6881V55.3463Z" fill="url(#paint3_radial_1923_35383)"/>
<path d="M87.6881 55.3463C87.6957 54.9097 87.6162 54.4758 87.4544 54.0702C87.2926 53.6645 87.0515 53.2952 86.7454 52.9837C86.4393 52.6722 86.0742 52.4248 85.6714 52.2559C85.2687 52.087 84.8363 52 84.3996 52C83.9628 52 83.5304 52.087 83.1277 52.2559C82.7249 52.4248 82.3598 52.6722 82.0537 52.9837C81.7476 53.2952 81.5066 53.6645 81.3447 54.0702C81.1829 54.4758 81.1034 54.9097 81.1111 55.3463V59.1313C81.1104 59.4533 81.1347 59.7753 81.1841 60.0973C81.2034 60.2147 81.2191 60.332 81.2311 60.4493C81.2671 60.8193 81.2231 61.3033 80.9711 61.6293L81.5731 62.2093C80.0412 62.9942 78.756 64.1871 77.8594 65.6564C76.9627 67.1257 76.4896 68.8141 76.4921 70.5353C76.4912 71.4935 76.6369 72.4462 76.9241 73.3603L77.9211 79.8673H86.0221V79.8643C91.0251 79.7563 95.0391 76.4943 95.0391 70.5343C95.0391 67.0323 93.3621 64.2123 90.8251 62.6223L90.8311 62.6173C90.6581 62.4973 90.4541 62.3743 90.2361 62.2433H90.2341C89.5141 61.8113 88.6341 61.2833 88.1711 60.4213C87.7681 59.6743 87.6911 58.4613 87.6911 57.8983H87.6881V55.3463Z" fill="url(#paint4_linear_1923_35383)"/>
<g filter="url(#filter2_f_1923_35383)">
<path d="M76.278 64.8977C76.2777 64.5625 76.3435 64.2305 76.4717 63.9208C76.5998 63.611 76.7878 63.3296 77.0248 63.0926C77.2619 62.8556 77.5433 62.6676 77.853 62.5394C78.1628 62.4113 78.4948 62.3454 78.83 62.3457H81.656C82.18 62.3457 82.6913 62.507 83.1204 62.8077C83.5496 63.1083 83.8757 63.5338 84.0547 64.0263C84.2336 64.5189 84.2565 65.0545 84.1205 65.5605C83.9844 66.0665 83.6958 66.5184 83.294 66.8547C83.6003 67.0855 83.8508 67.3822 84.0269 67.7228C84.2031 68.0635 84.3003 68.4395 84.3114 68.8228C84.3226 69.2062 84.2473 69.5871 84.0913 69.9375C83.9352 70.2878 83.7024 70.5986 83.41 70.8467C83.6926 71.0863 83.9196 71.3846 84.0752 71.7208C84.2308 72.0571 84.3113 72.4232 84.311 72.7937V72.9187C84.311 73.6187 84.031 74.2517 83.575 74.7127C83.9248 75.0589 84.1639 75.5012 84.2619 75.9835C84.3598 76.4659 84.3122 76.9664 84.1251 77.4216C83.938 77.8769 83.6198 78.2662 83.211 78.5402C82.8022 78.8143 82.3211 78.9606 81.829 78.9607H79.025C78.5886 78.961 78.1599 78.8463 77.782 78.6282C77.4041 78.41 77.0903 78.0962 76.8724 77.7182C76.6544 77.3402 76.5398 76.9114 76.5403 76.4751C76.5407 76.0387 76.6562 75.6102 76.875 75.2327C76.4347 75.0273 76.0622 74.7004 75.8014 74.2904C75.5406 73.8805 75.4024 73.4046 75.403 72.9187V72.7937C75.403 72.0037 75.761 71.2977 76.325 70.8297C76.0033 70.5505 75.7564 70.1954 75.6066 69.7967C75.4569 69.3979 75.409 68.9681 75.4672 68.5462C75.5255 68.1242 75.6882 67.7235 75.9405 67.3803C76.1927 67.0371 76.5267 66.7623 76.912 66.5807C76.5025 66.1158 76.277 65.5173 76.278 64.8977Z" fill="url(#paint5_linear_1923_35383)"/>
</g>
<g filter="url(#filter3_i_1923_35383)">
<path d="M76.91 66.738C75.3029 66.738 74 65.4351 74 63.828C74 62.2208 75.3029 60.918 76.91 60.918H80.133C81.7401 60.918 83.043 62.2208 83.043 63.828C83.043 65.4351 81.7401 66.738 80.133 66.738H76.91Z" fill="url(#paint6_linear_1923_35383)"/>
<path d="M76.91 66.738C75.3029 66.738 74 65.4351 74 63.828C74 62.2208 75.3029 60.918 76.91 60.918H80.133C81.7401 60.918 83.043 62.2208 83.043 63.828C83.043 65.4351 81.7401 66.738 80.133 66.738H76.91Z" fill="url(#paint7_radial_1923_35383)"/>
</g>
<g filter="url(#filter4_i_1923_35383)">
<path d="M77.1328 79.8671C75.5687 79.8671 74.3008 78.5992 74.3008 77.0351C74.3008 75.4711 75.5687 74.2031 77.1328 74.2031H80.3298C81.8939 74.2031 83.1618 75.4711 83.1618 77.0351C83.1618 78.5992 81.8939 79.8671 80.3298 79.8671H77.1328Z" fill="url(#paint8_linear_1923_35383)"/>
<path d="M77.1328 79.8671C75.5687 79.8671 74.3008 78.5992 74.3008 77.0351C74.3008 75.4711 75.5687 74.2031 77.1328 74.2031H80.3298C81.8939 74.2031 83.1618 75.4711 83.1618 77.0351C83.1618 78.5992 81.8939 79.8671 80.3298 79.8671H77.1328Z" fill="url(#paint9_radial_1923_35383)"/>
<path d="M77.1328 79.8671C75.5687 79.8671 74.3008 78.5992 74.3008 77.0351C74.3008 75.4711 75.5687 74.2031 77.1328 74.2031H80.3298C81.8939 74.2031 83.1618 75.4711 83.1618 77.0351C83.1618 78.5992 81.8939 79.8671 80.3298 79.8671H77.1328Z" fill="url(#paint10_radial_1923_35383)"/>
</g>
<path d="M77.1328 79.8671C75.5687 79.8671 74.3008 78.5992 74.3008 77.0351C74.3008 75.4711 75.5687 74.2031 77.1328 74.2031H80.3298C81.8939 74.2031 83.1618 75.4711 83.1618 77.0351C83.1618 78.5992 81.8939 79.8671 80.3298 79.8671H77.1328Z" fill="url(#paint11_linear_1923_35383)"/>
<path d="M77.1328 79.8671C75.5687 79.8671 74.3008 78.5992 74.3008 77.0351C74.3008 75.4711 75.5687 74.2031 77.1328 74.2031H80.3298C81.8939 74.2031 83.1618 75.4711 83.1618 77.0351C83.1618 78.5992 81.8939 79.8671 80.3298 79.8671H77.1328Z" fill="url(#paint12_radial_1923_35383)"/>
<g filter="url(#filter5_f_1923_35383)">
<path d="M75.7039 75.8877H79.5979C80.0055 75.8877 80.3359 76.2181 80.3359 76.6257C80.3359 77.0333 80.0055 77.3637 79.5979 77.3637H75.7039C75.2964 77.3637 74.9659 77.0333 74.9659 76.6257C74.9659 76.2181 75.2964 75.8877 75.7039 75.8877Z" fill="url(#paint13_linear_1923_35383)"/>
</g>
<path d="M75.982 75.8878C74.3351 75.8878 73 74.5527 73 72.9058C73 71.2589 74.3351 69.9238 75.982 69.9238H80.177C81.8239 69.9238 83.159 71.2589 83.159 72.9058C83.159 74.5527 81.8239 75.8878 80.177 75.8878H75.982Z" fill="#C4C4C4" fill-opacity="0.66"/>
<g filter="url(#filter6_i_1923_35383)">
<path d="M73 72.9778V72.8338C73 71.2267 74.3029 69.9238 75.91 69.9238H80.249C81.8561 69.9238 83.159 71.2267 83.159 72.8338V72.9778C83.159 74.585 81.8561 75.8878 80.249 75.8878H75.91C74.3029 75.8878 73 74.585 73 72.9778Z" fill="url(#paint14_linear_1923_35383)"/>
<path d="M73 72.9778V72.8338C73 71.2267 74.3029 69.9238 75.91 69.9238H80.249C81.8561 69.9238 83.159 71.2267 83.159 72.8338V72.9778C83.159 74.585 81.8561 75.8878 80.249 75.8878H75.91C74.3029 75.8878 73 74.585 73 72.9778Z" fill="url(#paint15_radial_1923_35383)"/>
<path d="M73 72.9778V72.8338C73 71.2267 74.3029 69.9238 75.91 69.9238H80.249C81.8561 69.9238 83.159 71.2267 83.159 72.8338V72.9778C83.159 74.585 81.8561 75.8878 80.249 75.8878H75.91C74.3029 75.8878 73 74.585 73 72.9778Z" fill="url(#paint16_radial_1923_35383)"/>
</g>
<g filter="url(#filter7_f_1923_35383)">
<path d="M74.7357 72.0176H79.9847C80.3922 72.0176 80.7227 72.348 80.7227 72.7556C80.7227 73.1632 80.3922 73.4936 79.9847 73.4936H74.7357C74.3281 73.4936 73.9977 73.1632 73.9977 72.7556C73.9977 72.348 74.3281 72.0176 74.7357 72.0176Z" fill="url(#paint17_linear_1923_35383)"/>
</g>
<g filter="url(#filter8_i_1923_35383)">
<path d="M73.0469 68.3957V68.3827C73.0469 66.7755 74.3497 65.4727 75.9569 65.4727H80.2509C81.858 65.4727 83.1609 66.7755 83.1609 68.3827V68.3957C83.1609 70.0028 81.858 71.3057 80.2509 71.3057H75.9569C74.3497 71.3057 73.0469 70.0028 73.0469 68.3957Z" fill="url(#paint18_linear_1923_35383)"/>
<path d="M73.0469 68.3957V68.3827C73.0469 66.7755 74.3497 65.4727 75.9569 65.4727H80.2509C81.858 65.4727 83.1609 66.7755 83.1609 68.3827V68.3957C83.1609 70.0028 81.858 71.3057 80.2509 71.3057H75.9569C74.3497 71.3057 73.0469 70.0028 73.0469 68.3957Z" fill="url(#paint19_radial_1923_35383)"/>
</g>
<path d="M84.401 52.0586C85.2729 52.0591 86.1089 52.4057 86.7254 53.0222C87.3419 53.6387 87.6885 54.4747 87.689 55.3466V57.8996L87.691 57.8986C87.691 58.4606 87.769 59.6746 88.171 60.4216C88.636 61.2846 89.515 61.8116 90.235 62.2426C90.455 62.3746 90.659 62.4966 90.832 62.6166C89.837 63.4136 87.8 65.0066 87.75 64.9686C86.5921 64.3423 85.4307 63.7223 84.266 63.1086L84.314 62.4186C83.4573 62.3957 82.6434 62.0394 82.0454 61.4255C81.4474 60.8116 81.1125 59.9886 81.112 59.1316V55.3466C81.1126 54.4746 81.4593 53.6384 82.076 53.0219C82.6927 52.4053 83.529 52.0589 84.401 52.0586Z" fill="url(#paint20_radial_1923_35383)"/>
<path d="M84.401 52.0586C85.2729 52.0591 86.1089 52.4057 86.7254 53.0222C87.3419 53.6387 87.6885 54.4747 87.689 55.3466V57.8996L87.691 57.8986C87.691 58.4606 87.769 59.6746 88.171 60.4216C88.636 61.2846 89.515 61.8116 90.235 62.2426C90.455 62.3746 90.659 62.4966 90.832 62.6166C89.837 63.4136 87.8 65.0066 87.75 64.9686C86.5921 64.3423 85.4307 63.7223 84.266 63.1086L84.314 62.4186C83.4573 62.3957 82.6434 62.0394 82.0454 61.4255C81.4474 60.8116 81.1125 59.9886 81.112 59.1316V55.3466C81.1126 54.4746 81.4593 53.6384 82.076 53.0219C82.6927 52.4053 83.529 52.0589 84.401 52.0586Z" fill="url(#paint21_radial_1923_35383)"/>
<path d="M86.4795 52.7998C86.8575 53.1079 87.1621 53.4963 87.3711 53.9369C87.58 54.3775 87.6881 54.8592 87.6875 55.3468V55.5388H86.2015C86.1956 55.1543 86.2244 54.7701 86.2875 54.3908L86.3045 54.2998C86.3865 53.8518 86.4805 53.3398 86.4795 52.7998Z" fill="#FFBF71"/>
<path d="M86.4795 52.7998C86.8575 53.1079 87.1621 53.4963 87.3711 53.9369C87.58 54.3775 87.6881 54.8592 87.6875 55.3468V55.5388H86.2015C86.1956 55.1543 86.2244 54.7701 86.2875 54.3908L86.3045 54.2998C86.3865 53.8518 86.4805 53.3398 86.4795 52.7998Z" fill="url(#paint22_radial_1923_35383)"/>
<g filter="url(#filter9_f_1923_35383)">
<path d="M76.2236 61.7119H79.8436C80.5383 61.7119 81.1016 62.2751 81.1016 62.9699C81.1016 63.6647 80.5383 64.2279 79.8436 64.2279H76.2236C75.5288 64.2279 74.9656 63.6647 74.9656 62.9699C74.9656 62.2751 75.5288 61.7119 76.2236 61.7119Z" fill="url(#paint23_linear_1923_35383)"/>
</g>
<g filter="url(#filter10_f_1923_35383)">
<path d="M75.2579 66.1885H79.9139C80.6086 66.1885 81.1719 66.7517 81.1719 67.4465C81.1719 68.1413 80.6086 68.7045 79.9139 68.7045H75.2579C74.5631 68.7045 73.9999 68.1413 73.9999 67.4465C73.9999 66.7517 74.5631 66.1885 75.2579 66.1885Z" fill="url(#paint24_linear_1923_35383)"/>
</g>
<g filter="url(#filter11_f_1923_35383)">
<path d="M81.9397 54.7338C81.9397 53.9424 82.581 53.3008 83.3722 53.3008C84.1633 53.3008 84.8047 53.9424 84.8047 54.7338V59.8648C84.8047 60.6562 84.1633 61.2978 83.3722 61.2978C82.581 61.2978 81.9397 60.6562 81.9397 59.8648V54.7338Z" fill="url(#paint25_linear_1923_35383)"/>
</g>
</g>
<defs>
<filter id="filter0_d_1923_35383" x="0.5" y="0" width="154.539" height="139.867" filterUnits="userSpaceOnUse" color-interpolation-filters="sRGB">
<feFlood flood-opacity="0" result="BackgroundImageFix"/>
<feColorMatrix in="SourceAlpha" type="matrix" values="0 0 0 0 0 0 0 0 0 0 0 0 0 0 0 0 0 0 127 0" result="hardAlpha"/>
<feOffset dx="4" dy="4"/>
<feGaussianBlur stdDeviation="22"/>
<feComposite in2="hardAlpha" operator="out"/>
<feColorMatrix type="matrix" values="0 0 0 0 0 0 0 0 0 0 0 0 0 0 0 0 0 0 0.08 0"/>
<feBlend mode="normal" in2="BackgroundImageFix" result="effect1_dropShadow_1923_35383"/>
<feBlend mode="normal" in="SourceGraphic" in2="effect1_dropShadow_1923_35383" result="shape"/>
</filter>
<filter id="filter1_i_1923_35383" x="76.4922" y="52" width="19.0469" height="27.8672" filterUnits="userSpaceOnUse" color-interpolation-filters="sRGB">
<feFlood flood-opacity="0" result="BackgroundImageFix"/>
<feBlend mode="normal" in="SourceGraphic" in2="BackgroundImageFix" result="shape"/>
<feColorMatrix in="SourceAlpha" type="matrix" values="0 0 0 0 0 0 0 0 0 0 0 0 0 0 0 0 0 0 127 0" result="hardAlpha"/>
<feOffset dx="0.5"/>
<feGaussianBlur stdDeviation="1"/>
<feComposite in2="hardAlpha" operator="arithmetic" k2="-1" k3="1"/>
<feColorMatrix type="matrix" values="0 0 0 0 0.847059 0 0 0 0 0.458824 0 0 0 0 0.360784 0 0 0 1 0"/>
<feBlend mode="normal" in2="shape" result="effect1_innerShadow_1923_35383"/>
</filter>
<filter id="filter2_f_1923_35383" x="73.4023" y="60.3457" width="12.9102" height="20.6152" filterUnits="userSpaceOnUse" color-interpolation-filters="sRGB">
<feFlood flood-opacity="0" result="BackgroundImageFix"/>
<feBlend mode="normal" in="SourceGraphic" in2="BackgroundImageFix" result="shape"/>
<feGaussianBlur stdDeviation="1" result="effect1_foregroundBlur_1923_35383"/>
</filter>
<filter id="filter3_i_1923_35383" x="74" y="60.918" width="9.54297" height="5.82031" filterUnits="userSpaceOnUse" color-interpolation-filters="sRGB">
<feFlood flood-opacity="0" result="BackgroundImageFix"/>
<feBlend mode="normal" in="SourceGraphic" in2="BackgroundImageFix" result="shape"/>
<feColorMatrix in="SourceAlpha" type="matrix" values="0 0 0 0 0 0 0 0 0 0 0 0 0 0 0 0 0 0 127 0" result="hardAlpha"/>
<feOffset dx="0.5"/>
<feGaussianBlur stdDeviation="0.75"/>
<feComposite in2="hardAlpha" operator="arithmetic" k2="-1" k3="1"/>
<feColorMatrix type="matrix" values="0 0 0 0 0.878431 0 0 0 0 0.541176 0 0 0 0 0.0627451 0 0 0 1 0"/>
<feBlend mode="normal" in2="shape" result="effect1_innerShadow_1923_35383"/>
</filter>
<filter id="filter4_i_1923_35383" x="74.3008" y="73.7031" width="9.35938" height="6.16406" filterUnits="userSpaceOnUse" color-interpolation-filters="sRGB">
<feFlood flood-opacity="0" result="BackgroundImageFix"/>
<feBlend mode="normal" in="SourceGraphic" in2="BackgroundImageFix" result="shape"/>
<feColorMatrix in="SourceAlpha" type="matrix" values="0 0 0 0 0 0 0 0 0 0 0 0 0 0 0 0 0 0 127 0" result="hardAlpha"/>
<feOffset dx="0.5" dy="-0.5"/>
<feGaussianBlur stdDeviation="0.75"/>
<feComposite in2="hardAlpha" operator="arithmetic" k2="-1" k3="1"/>
<feColorMatrix type="matrix" values="0 0 0 0 0.941176 0 0 0 0 0.643137 0 0 0 0 0.215686 0 0 0 1 0"/>
<feBlend mode="normal" in2="shape" result="effect1_innerShadow_1923_35383"/>
</filter>
<filter id="filter5_f_1923_35383" x="73.7148" y="74.6377" width="7.87109" height="3.97559" filterUnits="userSpaceOnUse" color-interpolation-filters="sRGB">
<feFlood flood-opacity="0" result="BackgroundImageFix"/>
<feBlend mode="normal" in="SourceGraphic" in2="BackgroundImageFix" result="shape"/>
<feGaussianBlur stdDeviation="0.625" result="effect1_foregroundBlur_1923_35383"/>
</filter>
<filter id="filter6_i_1923_35383" x="73" y="69.4238" width="10.6602" height="6.46387" filterUnits="userSpaceOnUse" color-interpolation-filters="sRGB">
<feFlood flood-opacity="0" result="BackgroundImageFix"/>
<feBlend mode="normal" in="SourceGraphic" in2="BackgroundImageFix" result="shape"/>
<feColorMatrix in="SourceAlpha" type="matrix" values="0 0 0 0 0 0 0 0 0 0 0 0 0 0 0 0 0 0 127 0" result="hardAlpha"/>
<feOffset dx="0.5" dy="-0.5"/>
<feGaussianBlur stdDeviation="0.75"/>
<feComposite in2="hardAlpha" operator="arithmetic" k2="-1" k3="1"/>
<feColorMatrix type="matrix" values="0 0 0 0 0.941176 0 0 0 0 0.643137 0 0 0 0 0.215686 0 0 0 1 0"/>
<feBlend mode="normal" in2="shape" result="effect1_innerShadow_1923_35383"/>
</filter>
<filter id="filter7_f_1923_35383" x="72.7461" y="70.7676" width="9.22656" height="3.97559" filterUnits="userSpaceOnUse" color-interpolation-filters="sRGB">
<feFlood flood-opacity="0" result="BackgroundImageFix"/>
<feBlend mode="normal" in="SourceGraphic" in2="BackgroundImageFix" result="shape"/>
<feGaussianBlur stdDeviation="0.625" result="effect1_foregroundBlur_1923_35383"/>
</filter>
<filter id="filter8_i_1923_35383" x="73.0469" y="64.9727" width="10.6133" height="6.33301" filterUnits="userSpaceOnUse" color-interpolation-filters="sRGB">
<feFlood flood-opacity="0" result="BackgroundImageFix"/>
<feBlend mode="normal" in="SourceGraphic" in2="BackgroundImageFix" result="shape"/>
<feColorMatrix in="SourceAlpha" type="matrix" values="0 0 0 0 0 0 0 0 0 0 0 0 0 0 0 0 0 0 127 0" result="hardAlpha"/>
<feOffset dx="0.5" dy="-0.5"/>
<feGaussianBlur stdDeviation="0.75"/>
<feComposite in2="hardAlpha" operator="arithmetic" k2="-1" k3="1"/>
<feColorMatrix type="matrix" values="0 0 0 0 0.941176 0 0 0 0 0.643137 0 0 0 0 0.215686 0 0 0 1 0"/>
<feBlend mode="normal" in2="shape" result="effect1_innerShadow_1923_35383"/>
</filter>
<filter id="filter9_f_1923_35383" x="73.7148" y="60.4619" width="8.63672" height="5.01562" filterUnits="userSpaceOnUse" color-interpolation-filters="sRGB">
<feFlood flood-opacity="0" result="BackgroundImageFix"/>
<feBlend mode="normal" in="SourceGraphic" in2="BackgroundImageFix" result="shape"/>
<feGaussianBlur stdDeviation="0.625" result="effect1_foregroundBlur_1923_35383"/>
</filter>
<filter id="filter10_f_1923_35383" x="72.75" y="64.9385" width="9.67188" height="5.01562" filterUnits="userSpaceOnUse" color-interpolation-filters="sRGB">
<feFlood flood-opacity="0" result="BackgroundImageFix"/>
<feBlend mode="normal" in="SourceGraphic" in2="BackgroundImageFix" result="shape"/>
<feGaussianBlur stdDeviation="0.625" result="effect1_foregroundBlur_1923_35383"/>
</filter>
<filter id="filter11_f_1923_35383" x="80.6914" y="52.0508" width="5.36328" height="10.4971" filterUnits="userSpaceOnUse" color-interpolation-filters="sRGB">
<feFlood flood-opacity="0" result="BackgroundImageFix"/>
<feBlend mode="normal" in="SourceGraphic" in2="BackgroundImageFix" result="shape"/>
<feGaussianBlur stdDeviation="0.625" result="effect1_foregroundBlur_1923_35383"/>
</filter>
<linearGradient id="paint0_linear_1923_35383" x1="80.7021" y1="56.8273" x2="90.7651" y2="78.0153" gradientUnits="userSpaceOnUse">
<stop stop-color="#FFCA44"/>
<stop offset="1" stop-color="#F8A528"/>
</linearGradient>
<radialGradient id="paint1_radial_1923_35383" cx="0" cy="0" r="1" gradientUnits="userSpaceOnUse" gradientTransform="translate(79.5159 55.0334) rotate(38.884) scale(5.01564 14.8034)">
<stop stop-color="#FFE34C"/>
<stop offset="1" stop-color="#FFE34C" stop-opacity="0"/>
</radialGradient>
<radialGradient id="paint2_radial_1923_35383" cx="0" cy="0" r="1" gradientUnits="userSpaceOnUse" gradientTransform="translate(88.6475 65.9634) rotate(54.809) scale(7.43021 5.38256)">
<stop stop-color="#FFCA2E"/>
<stop offset="1" stop-color="#FFCA2E" stop-opacity="0"/>
</radialGradient>
<radialGradient id="paint3_radial_1923_35383" cx="0" cy="0" r="1" gradientUnits="userSpaceOnUse" gradientTransform="translate(80.5861 68.3193) rotate(33.257) scale(16.1907 28.3343)">
<stop offset="0.681" stop-color="#E18E3F" stop-opacity="0"/>
<stop offset="1" stop-color="#E18E3F"/>
</radialGradient>
<linearGradient id="paint4_linear_1923_35383" x1="85.7661" y1="75.7503" x2="85.7661" y2="80.8513" gradientUnits="userSpaceOnUse">
<stop stop-color="#D8796F" stop-opacity="0"/>
<stop offset="1" stop-color="#D8796F"/>
</linearGradient>
<linearGradient id="paint5_linear_1923_35383" x1="79.857" y1="62.3457" x2="79.857" y2="75.6337" gradientUnits="userSpaceOnUse">
<stop stop-color="#D1730B"/>
<stop offset="1" stop-color="#E27D47"/>
</linearGradient>
<linearGradient id="paint6_linear_1923_35383" x1="74" y1="63.828" x2="83.044" y2="63.828" gradientUnits="userSpaceOnUse">
<stop stop-color="#FFDB44"/>
<stop offset="1" stop-color="#F9A928"/>
</linearGradient>
<radialGradient id="paint7_radial_1923_35383" cx="0" cy="0" r="1" gradientUnits="userSpaceOnUse" gradientTransform="translate(81.573 66.408) rotate(-37.367) scale(2.3211 1.55367)">
<stop stop-color="#D98320"/>
<stop offset="1" stop-color="#D98320" stop-opacity="0"/>
</radialGradient>
<linearGradient id="paint8_linear_1923_35383" x1="75.0768" y1="77.0341" x2="83.1618" y2="77.0341" gradientUnits="userSpaceOnUse">
<stop stop-color="#FFDB44"/>
<stop offset="1" stop-color="#F9A928"/>
</linearGradient>
<radialGradient id="paint9_radial_1923_35383" cx="0" cy="0" r="1" gradientUnits="userSpaceOnUse" gradientTransform="translate(81.3668 79.8661) rotate(180) scale(7.31347 2.78222)">
<stop stop-color="#F29545"/>
<stop offset="1" stop-color="#F29545" stop-opacity="0"/>
</radialGradient>
<radialGradient id="paint10_radial_1923_35383" cx="0" cy="0" r="1" gradientUnits="userSpaceOnUse" gradientTransform="translate(81.7178 75.1961) rotate(180) scale(7.4169 1.99096)">
<stop stop-color="#DA810B"/>
<stop offset="1" stop-color="#FFB610" stop-opacity="0"/>
</radialGradient>
<linearGradient id="paint11_linear_1923_35383" x1="78.7318" y1="80.4501" x2="78.7318" y2="78.6181" gradientUnits="userSpaceOnUse">
<stop stop-color="#DC7C6A"/>
<stop offset="1" stop-color="#DC7C6A" stop-opacity="0"/>
</linearGradient>
<radialGradient id="paint12_radial_1923_35383" cx="0" cy="0" r="1" gradientUnits="userSpaceOnUse" gradientTransform="translate(84.3348 77.0341) rotate(180) scale(5.60324 8.4227)">
<stop stop-color="#E38811"/>
<stop offset="1" stop-color="#E38811" stop-opacity="0"/>
</radialGradient>
<linearGradient id="paint13_linear_1923_35383" x1="75.2449" y1="76.2917" x2="81.0339" y2="76.2917" gradientUnits="userSpaceOnUse">
<stop stop-color="#FFF166"/>
<stop offset="1" stop-color="#FFF166" stop-opacity="0"/>
</linearGradient>
<linearGradient id="paint14_linear_1923_35383" x1="73.89" y1="72.9058" x2="83.159" y2="72.9058" gradientUnits="userSpaceOnUse">
<stop stop-color="#FFDB44"/>
<stop offset="1" stop-color="#F9A928"/>
</linearGradient>
<radialGradient id="paint15_radial_1923_35383" cx="0" cy="0" r="1" gradientUnits="userSpaceOnUse" gradientTransform="translate(81.101 75.8878) rotate(180) scale(8.38517 2.92967)">
<stop stop-color="#F29545"/>
<stop offset="1" stop-color="#F29545" stop-opacity="0"/>
</radialGradient>
<radialGradient id="paint16_radial_1923_35383" cx="0" cy="0" r="1" gradientUnits="userSpaceOnUse" gradientTransform="translate(81.504 70.9708) rotate(180) scale(8.50376 2.09648)">
<stop stop-color="#DA810B"/>
<stop offset="1" stop-color="#FFB610" stop-opacity="0"/>
</radialGradient>
<linearGradient id="paint17_linear_1923_35383" x1="74.3477" y1="72.4216" x2="81.5957" y2="72.4216" gradientUnits="userSpaceOnUse">
<stop stop-color="#FFF166"/>
<stop offset="1" stop-color="#FFF166" stop-opacity="0"/>
</linearGradient>
<linearGradient id="paint18_linear_1923_35383" x1="73.0469" y1="68.3897" x2="83.1599" y2="68.3897" gradientUnits="userSpaceOnUse">
<stop stop-color="#FFDB44"/>
<stop offset="1" stop-color="#F9A928"/>
</linearGradient>
<radialGradient id="paint19_radial_1923_35383" cx="0" cy="0" r="1" gradientUnits="userSpaceOnUse" gradientTransform="translate(81.0689 70.6007) rotate(180) scale(5.50067 2.44847)">
<stop stop-color="#F29545"/>
<stop offset="1" stop-color="#F29545" stop-opacity="0"/>
</radialGradient>
<radialGradient id="paint20_radial_1923_35383" cx="0" cy="0" r="1" gradientUnits="userSpaceOnUse" gradientTransform="translate(87.42 55.0326) rotate(90) scale(6.36013 2.36143)">
<stop stop-color="#F3A52A"/>
<stop offset="1" stop-color="#F3A52A" stop-opacity="0"/>
</radialGradient>
<radialGradient id="paint21_radial_1923_35383" cx="0" cy="0" r="1" gradientUnits="userSpaceOnUse" gradientTransform="translate(89.277 59.2206) rotate(137.003) scale(3.18567 4.82046)">
<stop stop-color="#CDA25E"/>
<stop offset="1" stop-color="#CDA25E" stop-opacity="0"/>
</radialGradient>
<radialGradient id="paint22_radial_1923_35383" cx="0" cy="0" r="1" gradientUnits="userSpaceOnUse" gradientTransform="translate(85.9689 54.6397) rotate(-11.634) scale(1.63946 3.57849)">
<stop offset="0.55" stop-color="#CCB28B" stop-opacity="0"/>
<stop offset="1" stop-color="#CCB28B"/>
</radialGradient>
<linearGradient id="paint23_linear_1923_35383" x1="75.2846" y1="62.4019" x2="81.8986" y2="62.4019" gradientUnits="userSpaceOnUse">
<stop stop-color="#FFF166"/>
<stop offset="1" stop-color="#FFF166" stop-opacity="0"/>
</linearGradient>
<linearGradient id="paint24_linear_1923_35383" x1="74.3729" y1="66.8785" x2="82.1039" y2="66.8785" gradientUnits="userSpaceOnUse">
<stop stop-color="#FFF166"/>
<stop offset="1" stop-color="#FFF166" stop-opacity="0"/>
</linearGradient>
<linearGradient id="paint25_linear_1923_35383" x1="82.0877" y1="55.4938" x2="85.1767" y2="55.4938" gradientUnits="userSpaceOnUse">
<stop stop-color="#FFF166"/>
<stop offset="1" stop-color="#FFF166" stop-opacity="0"/>
</linearGradient>
</defs>
</svg>
