<svg width="156" height="126" viewBox="0 0 156 126" fill="none" xmlns="http://www.w3.org/2000/svg">
<g opacity="0.7">
<g opacity="0.8" filter="url(#filter0_d_1923_36459)">
<rect x="40" y="40" width="114.5" height="38" rx="16" fill="#2D3154" fill-opacity="0.34" shape-rendering="crispEdges"/>
<rect x="40.5" y="40.5" width="113.5" height="37" rx="15.5" stroke="#4B528E" shape-rendering="crispEdges"/>
<path d="M53.4347 55.7273L55.4588 61.6506H55.5405L57.5646 55.7273H58.7507L56.1335 63H54.8658L52.2486 55.7273H53.4347ZM59.7157 63V57.5455H60.7775V63H59.7157ZM60.252 56.7038C60.0673 56.7038 59.9087 56.6423 59.7761 56.5192C59.6459 56.3937 59.5808 56.2446 59.5808 56.0717C59.5808 55.8965 59.6459 55.7474 59.7761 55.6243C59.9087 55.4988 60.0673 55.4361 60.252 55.4361C60.4366 55.4361 60.594 55.4988 60.7243 55.6243C60.8568 55.7474 60.9231 55.8965 60.9231 56.0717C60.9231 56.2446 60.8568 56.3937 60.7243 56.5192C60.594 56.6423 60.4366 56.7038 60.252 56.7038ZM64.5568 63.1101C64.0194 63.1101 63.5566 62.9953 63.1683 62.7656C62.7824 62.5336 62.4841 62.2081 62.2734 61.7891C62.0651 61.3677 61.9609 60.8741 61.9609 60.3082C61.9609 59.7495 62.0651 59.2571 62.2734 58.831C62.4841 58.4048 62.7777 58.0722 63.1541 57.8331C63.5329 57.594 63.9756 57.4744 64.4822 57.4744C64.79 57.4744 65.0883 57.5253 65.3771 57.6271C65.666 57.7289 65.9252 57.8887 66.1548 58.1065C66.3845 58.3243 66.5656 58.6072 66.6982 58.9553C66.8307 59.3009 66.897 59.7211 66.897 60.2159V60.5923H62.5611V59.7969H65.8565C65.8565 59.5175 65.7997 59.2701 65.6861 59.0547C65.5724 58.8369 65.4126 58.6652 65.2067 58.5398C65.0031 58.4143 64.764 58.3516 64.4893 58.3516C64.1911 58.3516 63.9306 58.425 63.7081 58.5717C63.4879 58.7161 63.3175 58.9055 63.1967 59.1399C63.0784 59.3719 63.0192 59.6241 63.0192 59.8963V60.5178C63.0192 60.8823 63.0831 61.1925 63.2109 61.4482C63.3411 61.7038 63.5223 61.8991 63.7543 62.0341C63.9863 62.1667 64.2573 62.233 64.5675 62.233C64.7687 62.233 64.9522 62.2045 65.1179 62.1477C65.2836 62.0885 65.4268 62.0009 65.5476 61.8849C65.6683 61.7689 65.7607 61.6257 65.8246 61.4553L66.8295 61.6364C66.7491 61.9323 66.6046 62.1915 66.3963 62.4141C66.1903 62.6342 65.9311 62.8059 65.6186 62.929C65.3085 63.0497 64.9545 63.1101 64.5568 63.1101ZM69.2479 63L67.6428 57.5455H68.7401L69.8089 61.5511H69.8622L70.9347 57.5455H72.032L73.0973 61.5334H73.1506L74.2124 57.5455H75.3097L73.7081 63H72.625L71.517 59.0618H71.4354L70.3274 63H69.2479ZM79.049 63V55.7273H80.1463V62.0554H83.4418V63H79.049ZM86.9059 63.1101C86.3945 63.1101 85.9483 62.9929 85.5671 62.7585C85.186 62.5241 84.89 62.1963 84.6793 61.7749C84.4686 61.3535 84.3633 60.861 84.3633 60.2976C84.3633 59.7318 84.4686 59.237 84.6793 58.8132C84.89 58.3894 85.186 58.0604 85.5671 57.826C85.9483 57.5916 86.3945 57.4744 86.9059 57.4744C87.4173 57.4744 87.8635 57.5916 88.2447 57.826C88.6258 58.0604 88.9218 58.3894 89.1325 58.8132C89.3432 59.237 89.4485 59.7318 89.4485 60.2976C89.4485 60.861 89.3432 61.3535 89.1325 61.7749C88.9218 62.1963 88.6258 62.5241 88.2447 62.7585C87.8635 62.9929 87.4173 63.1101 86.9059 63.1101ZM86.9094 62.2188C87.2409 62.2188 87.5155 62.1312 87.7333 61.956C87.9511 61.7808 88.1121 61.5476 88.2163 61.2564C88.3228 60.9652 88.3761 60.6444 88.3761 60.294C88.3761 59.946 88.3228 59.6264 88.2163 59.3352C88.1121 59.0417 87.9511 58.8061 87.7333 58.6286C87.5155 58.451 87.2409 58.3622 86.9094 58.3622C86.5756 58.3622 86.2987 58.451 86.0785 58.6286C85.8607 58.8061 85.6985 59.0417 85.592 59.3352C85.4878 59.6264 85.4357 59.946 85.4357 60.294C85.4357 60.6444 85.4878 60.9652 85.592 61.2564C85.6985 61.5476 85.8607 61.7808 86.0785 61.956C86.2987 62.1312 86.5756 62.2188 86.9094 62.2188ZM92.9313 63.1101C92.4033 63.1101 91.9488 62.9905 91.5676 62.7514C91.1889 62.5099 90.8977 62.1773 90.6941 61.7536C90.4905 61.3298 90.3887 60.8445 90.3887 60.2976C90.3887 59.7436 90.4928 59.2547 90.7012 58.831C90.9095 58.4048 91.2031 58.0722 91.5819 57.8331C91.9606 57.594 92.4069 57.4744 92.9206 57.4744C93.3349 57.4744 93.7042 57.5514 94.0286 57.7053C94.3529 57.8568 94.6145 58.0698 94.8134 58.3445C95.0146 58.6191 95.1342 58.9399 95.1721 59.3068H94.1387C94.0819 59.0511 93.9516 58.831 93.748 58.6463C93.5468 58.4616 93.2769 58.3693 92.9384 58.3693C92.6425 58.3693 92.3832 58.4474 92.1607 58.6037C91.9405 58.7576 91.7689 58.9777 91.6458 59.2642C91.5227 59.5483 91.4611 59.8845 91.4611 60.2727C91.4611 60.6705 91.5215 61.0137 91.6422 61.3026C91.763 61.5914 91.9334 61.8151 92.1536 61.9737C92.3761 62.1323 92.6377 62.2116 92.9384 62.2116C93.1396 62.2116 93.3219 62.175 93.4853 62.1016C93.651 62.0258 93.7895 61.9181 93.9007 61.7784C94.0144 61.6387 94.0937 61.4706 94.1387 61.2741H95.1721C95.1342 61.6269 95.0194 61.9418 94.8276 62.2188C94.6358 62.4957 94.379 62.7135 94.057 62.8722C93.7374 63.0308 93.3622 63.1101 92.9313 63.1101ZM97.8949 63.1207C97.5492 63.1207 97.2367 63.0568 96.9574 62.929C96.678 62.7988 96.4567 62.6106 96.2933 62.3643C96.1323 62.1181 96.0518 61.8163 96.0518 61.4588C96.0518 61.151 96.111 60.8977 96.2294 60.6989C96.3478 60.5 96.5076 60.3426 96.7088 60.2266C96.91 60.1106 97.1349 60.023 97.3835 59.9638C97.6321 59.9046 97.8854 59.8596 98.1435 59.8288C98.4702 59.791 98.7353 59.7602 98.9389 59.7365C99.1425 59.7105 99.2905 59.669 99.3828 59.6122C99.4751 59.5554 99.5213 59.4631 99.5213 59.3352V59.3104C99.5213 59.0002 99.4337 58.7599 99.2585 58.5895C99.0857 58.419 98.8277 58.3338 98.4844 58.3338C98.1269 58.3338 97.8452 58.4131 97.6392 58.5717C97.4356 58.728 97.2947 58.902 97.2166 59.0938L96.2188 58.8665C96.3371 58.535 96.5099 58.2675 96.7372 58.0639C96.9669 57.858 97.2308 57.7088 97.5291 57.6165C97.8274 57.5218 98.1411 57.4744 98.4702 57.4744C98.688 57.4744 98.9188 57.5005 99.1626 57.5526C99.4089 57.6023 99.6385 57.6946 99.8516 57.8295C100.067 57.9645 100.243 58.1574 100.381 58.4084C100.518 58.657 100.587 58.9801 100.587 59.3778V63H99.5497V62.2543H99.5071C99.4384 62.3916 99.3355 62.5265 99.1982 62.6591C99.0608 62.7917 98.8845 62.9018 98.669 62.9893C98.4536 63.0769 98.1955 63.1207 97.8949 63.1207ZM98.1257 62.2685C98.4193 62.2685 98.6702 62.2105 98.8786 62.0945C99.0893 61.9785 99.2491 61.8269 99.358 61.6399C99.4692 61.4505 99.5249 61.2481 99.5249 61.0327V60.3295C99.487 60.3674 99.4136 60.4029 99.3047 60.4361C99.1982 60.4669 99.0762 60.4941 98.9389 60.5178C98.8016 60.5391 98.6679 60.5592 98.5376 60.5781C98.4074 60.5947 98.2985 60.6089 98.2109 60.6207C98.005 60.6468 97.8168 60.6906 97.6463 60.7521C97.4782 60.8137 97.3433 60.9025 97.2415 61.0185C97.142 61.1321 97.0923 61.2836 97.0923 61.473C97.0923 61.7358 97.1894 61.9347 97.3835 62.0696C97.5777 62.2022 97.825 62.2685 98.1257 62.2685ZM104.547 57.5455V58.3977H101.568V57.5455H104.547ZM102.367 56.2386H103.428V61.3984C103.428 61.6044 103.459 61.7595 103.521 61.8636C103.582 61.9654 103.662 62.0353 103.759 62.0732C103.858 62.1087 103.966 62.1264 104.082 62.1264C104.167 62.1264 104.242 62.1205 104.306 62.1087C104.369 62.0968 104.419 62.0874 104.455 62.0803L104.646 62.9574C104.585 62.9811 104.497 63.0047 104.384 63.0284C104.27 63.0545 104.128 63.0687 103.958 63.071C103.678 63.0758 103.418 63.026 103.176 62.9219C102.935 62.8177 102.74 62.6567 102.59 62.4389C102.441 62.2211 102.367 61.9477 102.367 61.6186V56.2386ZM105.722 63V57.5455H106.783V63H105.722ZM106.258 56.7038C106.073 56.7038 105.915 56.6423 105.782 56.5192C105.652 56.3937 105.587 56.2446 105.587 56.0717C105.587 55.8965 105.652 55.7474 105.782 55.6243C105.915 55.4988 106.073 55.4361 106.258 55.4361C106.442 55.4361 106.6 55.4988 106.73 55.6243C106.863 55.7474 106.929 55.8965 106.929 56.0717C106.929 56.2446 106.863 56.3937 106.73 56.5192C106.6 56.6423 106.442 56.7038 106.258 56.7038ZM110.509 63.1101C109.998 63.1101 109.552 62.9929 109.171 62.7585C108.789 62.5241 108.494 62.1963 108.283 61.7749C108.072 61.3535 107.967 60.861 107.967 60.2976C107.967 59.7318 108.072 59.237 108.283 58.8132C108.494 58.3894 108.789 58.0604 109.171 57.826C109.552 57.5916 109.998 57.4744 110.509 57.4744C111.021 57.4744 111.467 57.5916 111.848 57.826C112.229 58.0604 112.525 58.3894 112.736 58.8132C112.947 59.237 113.052 59.7318 113.052 60.2976C113.052 60.861 112.947 61.3535 112.736 61.7749C112.525 62.1963 112.229 62.5241 111.848 62.7585C111.467 62.9929 111.021 63.1101 110.509 63.1101ZM110.513 62.2188C110.844 62.2188 111.119 62.1312 111.337 61.956C111.555 61.7808 111.716 61.5476 111.82 61.2564C111.926 60.9652 111.98 60.6444 111.98 60.294C111.98 59.946 111.926 59.6264 111.82 59.3352C111.716 59.0417 111.555 58.8061 111.337 58.6286C111.119 58.451 110.844 58.3622 110.513 58.3622C110.179 58.3622 109.902 58.451 109.682 58.6286C109.464 58.8061 109.302 59.0417 109.195 59.3352C109.091 59.6264 109.039 59.946 109.039 60.294C109.039 60.6444 109.091 60.9652 109.195 61.2564C109.302 61.5476 109.464 61.7808 109.682 61.956C109.902 62.1312 110.179 62.2188 110.513 62.2188ZM115.299 59.7614V63H114.237V57.5455H115.256V58.4332H115.324C115.449 58.1444 115.646 57.9124 115.913 57.7372C116.183 57.562 116.523 57.4744 116.933 57.4744C117.304 57.4744 117.63 57.5526 117.909 57.7088C118.188 57.8627 118.405 58.0923 118.559 58.3977C118.713 58.7031 118.79 59.0807 118.79 59.5305V63H117.728V59.6584C117.728 59.263 117.625 58.9541 117.419 58.7315C117.213 58.5066 116.93 58.3942 116.57 58.3942C116.324 58.3942 116.105 58.4474 115.913 58.554C115.724 58.6605 115.574 58.8168 115.462 59.0227C115.353 59.2263 115.299 59.4725 115.299 59.7614Z" fill="white"/>
<path d="M130 63.5L132.5 66M136 62L138.5 59.5M134 63.5L136.5 66L142.5 59.5" stroke="#06BBFE" stroke-width="1.5" stroke-linecap="round" stroke-linejoin="round"/>
</g>
</g>
<defs>
<filter id="filter0_d_1923_36459" x="0" y="0" width="202.5" height="126" filterUnits="userSpaceOnUse" color-interpolation-filters="sRGB">
<feFlood flood-opacity="0" result="BackgroundImageFix"/>
<feColorMatrix in="SourceAlpha" type="matrix" values="0 0 0 0 0 0 0 0 0 0 0 0 0 0 0 0 0 0 127 0" result="hardAlpha"/>
<feOffset dx="4" dy="4"/>
<feGaussianBlur stdDeviation="22"/>
<feComposite in2="hardAlpha" operator="out"/>
<feColorMatrix type="matrix" values="0 0 0 0 0 0 0 0 0 0 0 0 0 0 0 0 0 0 0.08 0"/>
<feBlend mode="normal" in2="BackgroundImageFix" result="effect1_dropShadow_1923_36459"/>
<feBlend mode="normal" in="SourceGraphic" in2="effect1_dropShadow_1923_36459" result="shape"/>
</filter>
</defs>
</svg>
